<?xml version="1.0" encoding="utf-8"?>
<!-- Generator: Adobe Illustrator 24.1.3, SVG Export Plug-In . SVG Version: 6.00 Build 0)  -->
<svg version="1.1" id="Layer_1" xmlns="http://www.w3.org/2000/svg" xmlns:xlink="http://www.w3.org/1999/xlink" x="0px" y="0px"
	 viewBox="0 0 55 55" style="enable-background:new 0 0 55 55;" xml:space="preserve">
<style type="text/css">
	.st0{clip-path:url(#SVGID_2_);}
	.st1{fill:#2BBFB4;}
	.st2{fill:#09A3A3;}
	.st3{fill:#FFEB99;}
	.st4{fill:#FFDE55;}
	.st5{fill:#EEBF00;}
	.st6{fill:#FFCD00;}
</style>
<g>
	<defs>
		<rect id="SVGID_1_" x="7" y="8" width="40" height="40"/>
	</defs>
	<clipPath id="SVGID_2_">
		<use xlink:href="#SVGID_1_"  style="overflow:visible;"/>
	</clipPath>
	<g class="st0">
		<path class="st1" d="M42.4,37.1c0,1.7-1,3.3-2.6,4c-2.7,1.2-7.3,2.7-12.8,2.7s-10.1-1.5-12.8-2.7c-1.6-0.7-2.6-2.2-2.6-4V20.4
			h30.8L42.4,37.1L42.4,37.1z"/>
		<path class="st2" d="M11.6,20.4v16.7c0,1.7,1,3.3,2.6,4c2.7,1.2,7.3,2.7,12.8,2.7c0.3,0,0.5,0,0.8,0c-0.3-0.8-0.5-1.6-0.5-2.3
			c-0.1-1.3,0.6-2.5,1.7-3.1l13.4-7.2V20.4H11.6z"/>
		<path class="st1" d="M24.2,11.6l-16,8.8c-1.6,0.9-1.6,3.1,0,4l16,8.8c1.7,1,3.9,1,5.6,0l16-8.8c1.6-0.9,1.6-3.1,0-4l-16-8.8
			C28.1,10.7,25.9,10.7,24.2,11.6z"/>
		<path class="st2" d="M29.8,11.6c-1.7-1-3.9-1-5.6,0l-16,8.8c-1.6,0.9-1.6,3.1,0,4l16,8.8c1.7,1,3.9,1,5.6,0
			C11.2,21.9,29.8,11.6,29.8,11.6z"/>
		<path class="st3" d="M27,24.2c1.6,0,2.9-0.8,2.9-1.8c0-1-1.3-1.8-2.9-1.8s-2.9,0.8-2.9,1.8C24.1,23.4,25.4,24.2,27,24.2z"/>
		<path class="st4" d="M25.7,22.5c0-0.8,0.9-1.5,2.1-1.7c-0.3,0-0.5-0.1-0.8-0.1c-1.6,0-2.9,0.8-2.9,1.8s1.3,1.8,2.9,1.8
			c0.3,0,0.6,0,0.8-0.1C26.6,23.9,25.7,23.2,25.7,22.5z"/>
		<path class="st5" d="M37.8,38.1c-0.3,0-0.6-0.3-0.6-0.6v-8.2L26.7,23c-0.3-0.2-0.4-0.5-0.2-0.8c0.2-0.3,0.5-0.4,0.8-0.2l10.8,6.4
			c0.2,0.1,0.3,0.3,0.3,0.5v8.6C38.4,37.8,38.1,38.1,37.8,38.1z"/>
		<path class="st6" d="M39.6,40v4.2c0,0.5-0.4,0.8-0.8,0.8h-2c-0.5,0-0.8-0.4-0.8-0.8V40c0-1,0.8-1.9,1.9-1.9
			C38.8,38.1,39.6,39,39.6,40z"/>
		<path class="st5" d="M37.8,44.3V40c0-0.7,0.4-1.3,0.9-1.6c-0.3-0.2-0.6-0.2-0.9-0.3c-1,0-1.9,0.8-1.9,1.9v4.3
			c0,0.5,0.4,0.8,0.8,0.8h1.9C38.2,45.1,37.8,44.7,37.8,44.3z"/>
		<path class="st3" d="M37.8,39.8c1,0,1.9-0.8,1.9-1.9s-0.8-1.9-1.9-1.9c-1,0-1.9,0.8-1.9,1.9S36.8,39.8,37.8,39.8z"/>
		<path class="st4" d="M37.8,37.9c0-0.7,0.4-1.3,0.9-1.6c-0.3-0.2-0.6-0.2-0.9-0.2c-1,0-1.9,0.8-1.9,1.9c0,1,0.8,1.9,1.9,1.9
			c0.3,0,0.7-0.1,0.9-0.2C38.2,39.2,37.8,38.6,37.8,37.9z"/>
	</g>
</g>
</svg>
