<svg xmlns="http://www.w3.org/2000/svg" xmlns:xlink="http://www.w3.org/1999/xlink" width="98.6" height="96.193" viewBox="0 0 98.6 96.193"><defs><clipPath id="a"><path d="M48.224-14.594C56.271,3.467,49.833,32.972,30.7,47.367c-19.044,14.485-50.785,13.769-65.985.358S-49.055,8.206-41.276-9.5C-33.408-27.29-19.192-36.678-.773-38.02,17.556-39.361,40.177-32.655,48.224-14.594Z" transform="translate(281.984 1288.185)" fill="#f06"/></clipPath></defs><g transform="translate(-235 -1250)" clip-path="url(#a)"><g transform="translate(236.203 1250)"><g transform="translate(0 0)"><path d="M94.048,36.9l-8.834-2.168c-.417-1.144-.9-2.29-1.439-3.427l4.6-7.669a2.817,2.817,0,0,0-.425-3.442L75.994,8.242a2.817,2.817,0,0,0-3.442-.425l-7.669,4.6c-1.137-.541-2.283-1.022-3.427-1.439L59.288,2.146A2.82,2.82,0,0,0,56.551,0H39.642A2.82,2.82,0,0,0,36.9,2.146L34.737,10.98c-1.144.417-2.29.9-3.427,1.439l-7.669-4.6a2.817,2.817,0,0,0-3.442.425L8.242,20.2a2.817,2.817,0,0,0-.425,3.442l4.6,7.669c-.541,1.137-1.022,2.283-1.439,3.427L2.146,36.9A2.82,2.82,0,0,0,0,39.642V56.551a2.82,2.82,0,0,0,2.146,2.737l8.834,2.168c.417,1.144.9,2.29,1.439,3.427l-4.6,7.669a2.817,2.817,0,0,0,.425,3.442L20.2,87.951a2.817,2.817,0,0,0,3.442.425l7.669-4.6c1.137.541,2.283,1.022,3.427,1.439l2.087,8.505.081.329a2.82,2.82,0,0,0,2.737,2.146l9.018-9.018,7.891,9.018a2.82,2.82,0,0,0,2.737-2.146l.081-.329,2.087-8.505c1.144-.417,2.29-.9,3.427-1.439l7.669,4.6a2.817,2.817,0,0,0,3.442-.425L87.951,75.994a2.817,2.817,0,0,0,.425-3.442l-4.6-7.669c.541-1.137,1.022-2.283,1.439-3.427l8.834-2.168a2.82,2.82,0,0,0,2.146-2.737V39.642A2.82,2.82,0,0,0,94.048,36.9Z" transform="translate(0 0)" fill="#4086f4"/></g><path d="M95.951,36.9l-8.834-2.168c-.417-1.144-.9-2.29-1.439-3.427l4.6-7.669a2.817,2.817,0,0,0-.425-3.442L77.9,8.242a2.817,2.817,0,0,0-3.442-.425l-7.669,4.6C65.65,11.878,64.5,11.4,63.36,10.98L61.192,2.146A2.82,2.82,0,0,0,58.454,0H50V87.739l.564-.564,7.891,9.018a2.82,2.82,0,0,0,2.737-2.146l.081-.329,2.087-8.505c1.144-.417,2.29-.9,3.427-1.439l7.669,4.6a2.817,2.817,0,0,0,3.442-.425L89.854,75.994a2.817,2.817,0,0,0,.425-3.442l-4.6-7.669c.541-1.137,1.022-2.283,1.439-3.427l8.834-2.168A2.82,2.82,0,0,0,98.1,56.551V39.642A2.82,2.82,0,0,0,95.951,36.9Z" transform="translate(-1.903 0)" fill="#4175df"/><g transform="translate(36.824 66.18)"><path d="M58.008,68.8H41.1a2.818,2.818,0,0,0-2.818,2.818V96.338l.081.329A2.82,2.82,0,0,0,41.1,98.812H58.008a2.82,2.82,0,0,0,2.737-2.146l.081-.329V71.617A2.818,2.818,0,0,0,58.008,68.8Z" transform="translate(-38.281 -68.799)" fill="#fabe2c"/></g><path d="M58.454,68.8H50V98.812h8.454a2.82,2.82,0,0,0,2.737-2.146l.081-.329V71.617A2.818,2.818,0,0,0,58.454,68.8Z" transform="translate(-1.903 -2.619)" fill="#ff9f00"/><g transform="translate(22.733 24.378)"><path d="M49,74.425A25.366,25.366,0,0,1,39.482,25.55a2.818,2.818,0,0,1,3.878,2.611V47.553L49,51.311l5.636-3.758V28.161a2.818,2.818,0,0,1,3.878-2.611A25.364,25.364,0,0,1,49,74.425Zm8.454-25.363h0Z" transform="translate(-23.633 -25.343)" fill="#fdd929"/></g><path d="M75.363,49.061A25.4,25.4,0,0,0,59.515,25.55a2.818,2.818,0,0,0-3.878,2.611V47.553L50,51.311V74.425A25.392,25.392,0,0,0,75.363,49.061Z" transform="translate(-1.903 -0.965)" fill="#fabe2c"/></g></g></svg>