<svg xmlns="http://www.w3.org/2000/svg" xmlns:xlink="http://www.w3.org/1999/xlink" width="57.693" height="52.484" viewBox="0 0 57.693 52.484"><defs><linearGradient id="a" y1="0.391" x2="1" y2="0.5" gradientUnits="objectBoundingBox"><stop offset="0" stop-color="#9bddd4"/><stop offset="1" stop-color="#9dc3bd"/></linearGradient></defs><g transform="translate(-757.952 -2989.283)"><g transform="translate(757.952 2989.283)"><g transform="translate(0 0)"><path d="M53.165,57.007H4.529A4.534,4.534,0,0,0,0,61.536v39.608a4.534,4.534,0,0,0,4.529,4.529H53.165a4.534,4.534,0,0,0,4.529-4.529V61.536a4.534,4.534,0,0,0-4.528-4.529Z" transform="translate(0 -53.188)" fill="url(#a)"/></g></g><g transform="translate(768.323 2989.283)"><path d="M93.732,23.117a1.69,1.69,0,0,0-1.69,1.69v7.577a1.69,1.69,0,1,0,3.38,0V24.807A1.69,1.69,0,0,0,93.732,23.117Z" transform="translate(-92.042 -23.117)" fill="#f79caf"/></g><g transform="translate(786.798 2989.283)"><g transform="translate(10.547 0)"><g transform="translate(4.548)"><path d="M391.647,23.117a1.69,1.69,0,0,0-1.69,1.69v7.577a1.69,1.69,0,1,0,3.38,0V24.807A1.69,1.69,0,0,0,391.647,23.117Z" transform="translate(-389.957 -23.117)" fill="#f66986"/></g></g></g><g transform="translate(0 67)"><rect width="41.482" height="30.628" rx="4" transform="translate(765.905 2937.579)" fill="#f79caf"/><g transform="translate(794.916 2943.425)"><path d="M354.928,169.931l1.267-1.267a1.3,1.3,0,1,0-1.84-1.84l-1.267,1.267-1.267-1.267a1.3,1.3,0,0,0-1.84,1.84l1.267,1.267-1.267,1.267a1.3,1.3,0,1,0,1.84,1.84l1.267-1.267,1.267,1.267a1.3,1.3,0,0,0,1.84-1.84Z" transform="translate(-349.6 -166.443)" fill="#fff"/><path d="M356.2,316.931a1.3,1.3,0,0,0-1.84,0l-1.267,1.267-1.267-1.267a1.3,1.3,0,0,0-1.84,1.84l1.267,1.267-1.267,1.267a1.3,1.3,0,1,0,1.84,1.84l1.267-1.267,1.267,1.267a1.3,1.3,0,0,0,1.84-1.84l-1.267-1.267,1.267-1.267a1.3,1.3,0,0,0,0-1.84Z" transform="translate(-349.6 -303.53)" fill="#fff"/></g><g transform="translate(771.704 2943.425)"><path d="M87.288,169.93l1.267-1.267a1.3,1.3,0,0,0-1.839-1.839l-1.267,1.267-1.267-1.267a1.3,1.3,0,0,0-1.839,1.839l1.267,1.267L82.343,171.2a1.3,1.3,0,1,0,1.839,1.839l1.267-1.267,1.267,1.267a1.3,1.3,0,1,0,1.839-1.839Z" transform="translate(-81.963 -166.443)" fill="#fff"/><g transform="translate(0 0)"><path d="M222.376,166.823a1.3,1.3,0,0,0-1.84,0l-1.267,1.267L218,166.823a1.3,1.3,0,0,0-1.84,1.84l1.267,1.267-1.267,1.267a1.3,1.3,0,1,0,1.84,1.84l1.268-1.267,1.267,1.267a1.3,1.3,0,0,0,1.84-1.84l-1.267-1.267,1.267-1.267a1.3,1.3,0,0,0,0-1.84Z" transform="translate(-204.173 -166.442)" fill="#fff"/><path d="M222.376,316.931a1.3,1.3,0,0,0-1.84,0l-1.267,1.267L218,316.931a1.3,1.3,0,0,0-1.84,1.84l1.267,1.267-1.267,1.267a1.3,1.3,0,1,0,1.84,1.84l1.268-1.267,1.267,1.267a1.3,1.3,0,0,0,1.84-1.84l-1.267-1.267,1.267-1.267a1.3,1.3,0,0,0,0-1.84Z" transform="translate(-204.173 -303.53)" fill="#fff"/><path d="M88.558,316.931a1.3,1.3,0,0,0-1.84,0L85.451,318.2l-1.267-1.267a1.3,1.3,0,0,0-1.84,1.84l1.267,1.267-1.267,1.267a1.3,1.3,0,1,0,1.84,1.84l1.267-1.267,1.267,1.267a1.3,1.3,0,0,0,1.84-1.84l-1.267-1.267,1.267-1.267a1.3,1.3,0,0,0,0-1.84Z" transform="translate(-81.963 -303.529)" fill="#fff"/></g></g></g></g></svg>