<svg xmlns="http://www.w3.org/2000/svg" width="1946.001" height="1439.38" viewBox="0 0 1946.001 1439.38">
  <g id="Group_188" data-name="Group 188" transform="translate(0)">
    <path id="Path_312" data-name="Path 312" d="M1479.627,133.316l-19.209.391a463.577,463.577,0,0,0-158.979,34.853S1187.564,186.4,989.821,434.292l-13.3,16C816.293,239.015,670.891,178.34,647.771,169.7c-2.934-1.095-5.83-2.231-8.723-3.364a464.321,464.321,0,0,0-167.933-33.017C214.11,130.773,1.89,339.2.012,596.2c-1.878,259.159,207.64,469.852,466.37,469.852l19.209-.392a463.576,463.576,0,0,0,158.979-34.853s116.064-18.191,317.289-272.892l-.821,1.094,4.576,5.595c187.26,222.429,335.833,266.2,335.833,266.2a464.7,464.7,0,0,0,178.184,35.245c257.594,0,466.37-208.815,466.37-466.37s-208.78-466.37-466.374-466.37ZM702.62,764.529c-65.21,68.38-139.416,121.15-238.191,121.15-157.96,0-285.993-128.033-285.993-285.993,0-157.922,127.995-285.955,285.879-285.993,88.25-.038,158.314,47.449,222.623,104.8,97.992,87.353,172.472,173.136,172.472,173.136S756.564,707.887,702.62,764.529ZM1481.7,885.679c-88.25.038-158.314-47.449-222.623-104.8-97.992-87.353-172.472-173.137-172.472-173.137s102.842-116.258,156.786-172.9c65.21-68.38,139.416-121.15,238.191-121.15,157.96,0,285.993,128.033,285.993,285.993,0,157.926-127.995,285.959-285.875,286Z" transform="translate(0 373.323)" fill="#fafafa"/>
    <g id="Group_187" data-name="Group 187" transform="translate(0.001)">
      <path id="Path_313" data-name="Path 313" d="M378.422,258.123S400.014,283,435.3,319.616L310.434,474.486q-25.878-27.342-53.006-59.5l-4.576-5.594.821-1.094Z" transform="translate(708.181 722.944)" fill="#fafafa"/>
      <path id="Path_314" data-name="Path 314" d="M266.671,404.615S245.82,380.6,211.632,345L332.626,200.065q25.17,29.1,51.166,63.214Z" transform="translate(592.733 560.337)" fill="#fafafa"/>
      <path id="Path_315" data-name="Path 315" d="M711.99,139.8c146.186,78.706,245.546,233.185,245.546,410.86,0,257.556-208.773,466.37-466.371,466.37A464.159,464.159,0,0,1,327.728,987.54c35.325,19.011,55.822,25.036,55.822,25.036a464.7,464.7,0,0,0,178.184,35.245c257.593,0,466.37-208.815,466.37-466.371,0-204.979-132.259-379.1-316.114-441.646Z" transform="translate(917.892 391.559)" fill="#fafafa"/>
      <path id="Path_316" data-name="Path 316" d="M0,0" fill="#fafafa"/>
    </g>
  </g>
</svg>
