<svg xmlns="http://www.w3.org/2000/svg" xmlns:xlink="http://www.w3.org/1999/xlink" width="48.365" height="50.369" viewBox="0 0 48.365 50.369"><defs><linearGradient id="a" x1="0.215" y1="-0.031" x2="0.785" y2="4.031" gradientUnits="objectBoundingBox"><stop offset="0" stop-color="#816a6a"/><stop offset="1" stop-color="#9d8b8b"/></linearGradient></defs><g transform="translate(-10.188)"><path d="M52.7,46.176H16.044a5.856,5.856,0,0,0-5.856,5.856V86.147A5.856,5.856,0,0,0,16.044,92H52.7a5.856,5.856,0,0,0,5.856-5.856V52.032A5.856,5.856,0,0,0,52.7,46.176Z" transform="translate(0 -41.633)" fill="#ebf0f3"/><path d="M58.553,39.319v-7.1A5.856,5.856,0,0,0,52.7,26.368H16.044a5.856,5.856,0,0,0-5.856,5.856v7.1Z" transform="translate(0 -23.774)" fill="#ec849a"/><path d="M58.553,58.5V52.032A5.856,5.856,0,0,0,52.7,46.176H16.044a5.856,5.856,0,0,0-5.856,5.856V58.5Z" transform="translate(0 -41.633)" fill="#f79caf"/><path d="M88.958,78.145A2.044,2.044,0,1,0,91,80.189,2.044,2.044,0,0,0,88.958,78.145Z" transform="translate(-69.178 -70.457)" fill="#ec849a"/><path d="M97.668,0a1.094,1.094,0,0,0-1.093,1.093V9.612a1.093,1.093,0,1,0,2.187,0V1.093A1.093,1.093,0,0,0,97.668,0Z" transform="translate(-77.888)" fill="url(#a)"/><path d="M187.832,78.145a2.044,2.044,0,1,0,2.044,2.044A2.044,2.044,0,0,0,187.832,78.145Z" transform="translate(-158.325 -70.457)" fill="#ec849a"/><path d="M196.542,0a1.093,1.093,0,0,0-1.093,1.093V9.612a1.093,1.093,0,1,0,2.187,0V1.093A1.093,1.093,0,0,0,196.542,0Z" transform="translate(-167.036)" fill="url(#a)"/><path d="M286.706,78.145a2.044,2.044,0,1,0,2.044,2.044A2.044,2.044,0,0,0,286.706,78.145Z" transform="translate(-247.472 -70.457)" fill="#ec849a"/><path d="M295.416,0a1.093,1.093,0,0,0-1.093,1.093V9.612a1.093,1.093,0,1,0,2.187,0V1.093A1.093,1.093,0,0,0,295.416,0Z" transform="translate(-256.182)" fill="url(#a)"/><path d="M385.58,78.145a2.044,2.044,0,1,0,2.044,2.044A2.044,2.044,0,0,0,385.58,78.145Z" transform="translate(-336.619 -70.457)" fill="#ec849a"/><path d="M394.288,0A1.094,1.094,0,0,0,393.2,1.093V9.612a1.093,1.093,0,0,0,2.187,0V1.093A1.093,1.093,0,0,0,394.288,0Z" transform="translate(-345.328)" fill="url(#a)"/><g transform="translate(19.78 24.96)"><path d="M191.586,253.715h4.42v4.42h-4.42Z" transform="translate(-183.332 -253.715)" fill="#ec849a"/><path d="M275.482,253.715h4.42v4.42h-4.42Z" transform="translate(-258.975 -253.715)" fill="#ec849a"/><path d="M359.379,253.715h4.42v4.42h-4.42Z" transform="translate(-334.618 -253.715)" fill="#ec849a"/><path d="M107.689,324.153h4.42v4.42h-4.42Z" transform="translate(-107.689 -317.224)" fill="#ec849a"/><path d="M191.586,324.153h4.42v4.42h-4.42Z" transform="translate(-183.332 -317.224)" fill="#7adfd0"/><path d="M275.482,324.153h4.42v4.42h-4.42Z" transform="translate(-258.975 -317.224)" fill="#ec849a"/><path d="M359.379,324.153h4.42v4.42h-4.42Z" transform="translate(-334.618 -317.224)" fill="#ec849a"/><path d="M107.689,394.59h4.42v4.42h-4.42Z" transform="translate(-107.689 -380.731)" fill="#ec849a"/><path d="M191.586,394.59h4.42v4.42h-4.42Z" transform="translate(-183.332 -380.731)" fill="#ec849a"/><path d="M275.482,394.59h4.42v4.42h-4.42Z" transform="translate(-258.975 -380.731)" fill="#ec849a"/></g></g></svg>