<svg xmlns="http://www.w3.org/2000/svg" width="57.29" height="59.2" viewBox="0 0 57.29 59.2"><g transform="translate(-16)"><path d="M27.458,288a11.458,11.458,0,0,1,11.458,11.458v11.508a36.233,36.233,0,0,1-22.916,0V299.458A11.458,11.458,0,0,1,27.458,288Z" transform="translate(0 -253.626)" fill="#acebe2"/><ellipse cx="8" cy="7.5" rx="8" ry="7.5" transform="translate(19.645 19.6)" fill="#98d7ce"/><path d="M315.458,288a11.458,11.458,0,0,1,11.458,11.458v11.508a36.233,36.233,0,0,1-22.916,0V299.458A11.458,11.458,0,0,1,315.458,288Z" transform="translate(-253.626 -253.626)" fill="#f79caf"/><ellipse cx="8" cy="7.5" rx="8" ry="7.5" transform="translate(53.645 19.6)" fill="#e3889b"/><path d="M105.845,299.458v11.508a36.252,36.252,0,0,1-11.458,1.86q-1.194,0-2.387-.08a36.237,36.237,0,0,0,9.071-1.78V299.458A11.462,11.462,0,0,0,92,288.249a11.466,11.466,0,0,1,13.845,11.209Z" transform="translate(-66.929 -253.626)" fill="#98d7ce"/><path d="M102.026,167.639A7.643,7.643,0,0,1,92,174.9a7.641,7.641,0,0,0,0-14.516,7.644,7.644,0,0,1,10.026,7.258Z" transform="translate(-66.929 -140.903)" fill="#84c3ba"/><path d="M393.845,299.458v11.508a36.252,36.252,0,0,1-11.458,1.86q-1.194,0-2.387-.08a36.237,36.237,0,0,0,9.071-1.78V299.458A11.462,11.462,0,0,0,380,288.249a11.466,11.466,0,0,1,13.845,11.209Z" transform="translate(-320.555 -253.626)" fill="#e3889b"/><path d="M390.026,167.639A7.643,7.643,0,0,1,380,174.9a7.641,7.641,0,0,0,0-14.516,7.644,7.644,0,0,1,10.026,7.258Z" transform="translate(-320.555 -140.903)" fill="#cf7487"/><path d="M177.314,8.015a1.9,1.9,0,0,1-1.351-.56,12.411,12.411,0,0,0-17.553,0,1.91,1.91,0,1,1-2.7-2.7,16.231,16.231,0,0,1,22.956,0,1.91,1.91,0,0,1-1.351,3.26Z" transform="translate(-122.542)" fill="#e3e3e8"/><path d="M207.454,62.056a1.9,1.9,0,0,1-1.35-.559,5.732,5.732,0,0,0-8.1,0,1.91,1.91,0,0,1-2.7-2.7,9.551,9.551,0,0,1,13.5,0,1.91,1.91,0,0,1-1.35,3.26Z" transform="translate(-157.407 -49.316)" fill="#e3e3e8"/><path d="M234.864,133.729a2.865,2.865,0,1,1,2.865-2.865A2.868,2.868,0,0,1,234.864,133.729Z" transform="translate(-190.219 -112.723)" fill="#e3e3e8"/></g></svg>