<svg xmlns="http://www.w3.org/2000/svg" width="47.96" height="53.762" viewBox="0 0 47.96 53.762"><g transform="translate(-67.104 -76.065)"><path d="M77.333,76.072,67.1,84.353V127.96a2.122,2.122,0,0,0,2.306,1.867h43.347a2.122,2.122,0,0,0,2.306-1.867v-51.9C113.829,76.366,77.333,76.072,77.333,76.072Z" transform="translate(0 0)" fill="#dfebfa"/><path d="M72.218,109.7,67.1,113.755V156.5a2.11,2.11,0,0,0,2.306,1.83h2.808V109.7Z" transform="translate(0 -28.508)" fill="#b1dbfc"/><path d="M67.1,86.351h7.923a2.306,2.306,0,0,0,2.306-2.306V76.122Z" transform="translate(0 -0.048)" fill="#dfebfa"/><path d="M67.1,86.351h7.923a2.306,2.306,0,0,0,2.306-2.306V76.122Z" transform="translate(0 -0.048)" fill="#b1dbfc"/><path d="M67.1,86.351h5.114l5.114-5.114V76.122Z" transform="translate(0 -0.048)" fill="#8bcaff"/><g transform="translate(73.048 91.024)"><path d="M109.171,181.643l-2.4-2.4a2.208,2.208,0,1,1,3.123-3.123l.84.84,2.05-2.05a2.208,2.208,0,1,1,3.123,3.123l-3.611,3.611a2.208,2.208,0,0,1-3.123,0Z" transform="translate(-106.123 -174.262)" fill="#f66986"/></g><g transform="translate(73.048 102.692)"><path d="M109.171,258.241l-2.4-2.4a2.208,2.208,0,0,1,3.123-3.123l.84.84,2.05-2.05a2.208,2.208,0,1,1,3.123,3.123l-3.611,3.611A2.208,2.208,0,0,1,109.171,258.241Z" transform="translate(-106.123 -250.86)" fill="#f66986"/></g><g transform="translate(73.048 114.361)"><path d="M109.171,334.839l-2.4-2.4a2.208,2.208,0,1,1,3.123-3.123l.84.84,2.05-2.05a2.208,2.208,0,1,1,3.123,3.123l-3.611,3.611A2.208,2.208,0,0,1,109.171,334.839Z" transform="translate(-106.123 -327.458)" fill="#f66986"/></g><path d="M226.267,185.363H208.5a1.467,1.467,0,0,0-1.467,1.467v1.712a1.467,1.467,0,0,0,1.467,1.467h17.766a1.467,1.467,0,0,0,1.467-1.467V186.83A1.467,1.467,0,0,0,226.267,185.363Z" transform="translate(-118.614 -92.648)" fill="#91c4bd"/><path d="M226.267,261.961H208.5a1.467,1.467,0,0,0-1.467,1.467v1.712a1.467,1.467,0,0,0,1.467,1.467h17.766a1.467,1.467,0,0,0,1.467-1.467v-1.712A1.467,1.467,0,0,0,226.267,261.961Z" transform="translate(-118.614 -157.578)" fill="#91c4bd"/><path d="M226.267,338.559H208.5a1.467,1.467,0,0,0-1.467,1.467v1.712A1.467,1.467,0,0,0,208.5,343.2h17.766a1.467,1.467,0,0,0,1.467-1.467v-1.712A1.467,1.467,0,0,0,226.267,338.559Z" transform="translate(-118.614 -222.507)" fill="#91c4bd"/><g transform="translate(88.42 92.715)"><path d="M215.172,188.54v-1.712a1.467,1.467,0,0,1,1.467-1.467H208.5a1.467,1.467,0,0,0-1.467,1.467v1.712a1.467,1.467,0,0,0,1.467,1.467h8.138a1.467,1.467,0,0,1-1.467-1.467Z" transform="translate(-207.034 -185.362)" fill="#98d7ce"/><path d="M215.172,265.139v-1.711a1.467,1.467,0,0,1,1.467-1.467H208.5a1.467,1.467,0,0,0-1.467,1.467v1.712a1.467,1.467,0,0,0,1.467,1.467h8.138A1.467,1.467,0,0,1,215.172,265.139Z" transform="translate(-207.034 -250.292)" fill="#98d7ce"/><path d="M215.172,341.737v-1.712a1.467,1.467,0,0,1,1.467-1.467H208.5a1.467,1.467,0,0,0-1.467,1.467v1.712A1.467,1.467,0,0,0,208.5,343.2h8.138A1.467,1.467,0,0,1,215.172,341.737Z" transform="translate(-207.034 -315.222)" fill="#98d7ce"/></g></g></svg>