<svg xmlns="http://www.w3.org/2000/svg" xmlns:xlink="http://www.w3.org/1999/xlink" width="62.428" height="60.589" viewBox="0 0 62.428 60.589"><defs><linearGradient id="a" x1="0.115" y1="0.296" x2="0.885" y2="1.299" gradientUnits="objectBoundingBox"><stop offset="0" stop-color="#72c2c8"/><stop offset="1" stop-color="#b8e1e3"/></linearGradient><linearGradient id="b" x1="0.091" y1="-0.118" x2="0.909" y2="1.02" gradientUnits="objectBoundingBox"><stop offset="0" stop-color="#c7bdbd"/><stop offset="1" stop-color="#f1eeee"/></linearGradient><linearGradient id="c" x1="0.215" y1="-0.031" x2="0.785" y2="4.031" gradientUnits="objectBoundingBox"><stop offset="0" stop-color="#816a6a"/><stop offset="1" stop-color="#9d8b8b"/></linearGradient><linearGradient id="d" x1="0.142" y1="-1.022" x2="0.858" y2="-0.328" gradientUnits="objectBoundingBox"><stop offset="0" stop-color="#e87676"/><stop offset="1" stop-color="#f2b3b3"/></linearGradient></defs><g transform="translate(12 -2295)"><g transform="translate(-12 2295)"><g transform="translate(0 0)"><path d="M85.471,49.826,81.892,20.315a5.45,5.45,0,0,0-6.067-4.754h0L30.575,21.048a5.456,5.456,0,0,0-4.754,6.066L29.4,56.626a5.452,5.452,0,0,0,5.4,4.795,5.533,5.533,0,0,0,.667-.04l45.251-5.487a5.45,5.45,0,0,0,4.754-6.066h0Z" transform="translate(-23.083 -15.521)" fill="url(#a)"/><rect width="56.482" height="40.628" rx="4" transform="translate(0 10.464)" fill="url(#b)"/><path d="M4,176H60.482v7.927H4Z" transform="translate(-4 -156.122)" fill="url(#c)"/><path d="M25.45,294.973H21.486a1.486,1.486,0,1,1,0-2.973H25.45a1.486,1.486,0,1,1,0,2.973Z" transform="translate(-18.018 -257.754)" fill="#b9acac"/><path d="M125.414,294.973h-7.927a1.486,1.486,0,1,1,0-2.973h7.927a1.486,1.486,0,0,1,0,2.973Z" transform="translate(-102.127 -257.754)" fill="#b9acac"/><path d="M223.349,292.993l-1.284-3.406.963-3.511a1.486,1.486,0,0,0-.616-1.635l-3.041-2-1.284-3.406a1.489,1.489,0,0,0-1.46-.96l-3.636.169-3.041-2a1.486,1.486,0,0,0-1.745.081l-2.843,2.274-3.636.169a1.486,1.486,0,0,0-1.364,1.092l-.963,3.51-2.843,2.274a1.486,1.486,0,0,0-.462,1.685l1.284,3.406-.963,3.511a1.486,1.486,0,0,0,.616,1.635l3.042,2,1.284,3.406a1.49,1.49,0,0,0,1.46.96l3.636-.169,3.041,2a1.486,1.486,0,0,0,1.745-.081l2.843-2.274,3.636-.169a1.487,1.487,0,0,0,1.364-1.092l.963-3.511,2.843-2.274a1.486,1.486,0,0,0,.462-1.685Z" transform="translate(-172.214 -243.733)" fill="url(#d)"/><g transform="translate(32.056 40.977)"><path d="M264.286,357.24a1.486,1.486,0,0,1-1.051-2.537l7.927-7.927a1.486,1.486,0,1,1,2.1,2.1l-7.927,7.927a1.482,1.482,0,0,1-1.051.435Z" transform="translate(-262.799 -346.339)" fill="#fcf0f0"/><circle cx="1.486" cy="1.486" r="1.486" transform="translate(7.432 7.432)" fill="#fcf0f0"/><circle cx="1.486" cy="1.486" r="1.486" transform="translate(0.496 0.496)" fill="#fcf0f0"/></g></g></g></g></svg>