<svg xmlns="http://www.w3.org/2000/svg" width="50.729" height="50.609" viewBox="0 0 50.729 50.609"><g transform="translate(0 -0.604)"><path d="M7.417,73.626H4.238A4.237,4.237,0,0,0,0,77.853v7.092a1.486,1.486,0,1,0,2.972,0V77.853A1.262,1.262,0,0,1,4.238,76.6H7.417V73.626Z" transform="translate(0 -65.787)" fill="#efeaee"/><path d="M438.452,73.626h-3.384V76.6h3.384a1.262,1.262,0,0,1,1.266,1.255v7.092a1.486,1.486,0,0,0,2.972,0V77.853A4.237,4.237,0,0,0,438.452,73.626Z" transform="translate(-391.962 -65.787)" fill="#d3d2d8"/><path d="M84.968,354.091H77.707a1.486,1.486,0,0,0-1.486,1.486v9.649a4.461,4.461,0,0,0,4.462,4.45h1.308a4.462,4.462,0,0,0,4.462-4.45v-9.649A1.486,1.486,0,0,0,84.968,354.091Z" transform="translate(-68.669 -318.464)" fill="#e1e1e1"/><path d="M341.242,354.091h-7.261a1.486,1.486,0,0,0-1.486,1.486v9.649a4.462,4.462,0,0,0,4.462,4.45h1.308a4.462,4.462,0,0,0,4.462-4.45v-9.649A1.486,1.486,0,0,0,341.242,354.091Z" transform="translate(-299.551 -318.464)" fill="#e0e0e0"/><path d="M97.048,170.729h-33.3l-2.716,7.68v15.04a3.72,3.72,0,0,0,3.72,3.72H95.926a3.721,3.721,0,0,0,3.721-3.721v-15.04Z" transform="translate(-54.986 -153.269)" fill="#f79caf"/><path d="M95.929.6H64.751a3.718,3.718,0,0,0-3.718,3.718V25.14H99.647V4.322A3.718,3.718,0,0,0,95.929.6Z" transform="translate(-54.986)" fill="#acebe2"/><path d="M255.9,170.729V197.17h15.586a3.721,3.721,0,0,0,3.721-3.721v-15.04l-2.6-7.68H255.9Z" transform="translate(-230.542 -153.269)" fill="#e3889b"/><path d="M271.485.6H255.9V25.14H275.2V4.322A3.718,3.718,0,0,0,271.485.6Z" transform="translate(-230.542)" fill="#90d9ce"/><ellipse cx="5.011" cy="4.997" rx="5.011" ry="4.997" transform="translate(11.881 28.013)" fill="#f7879e"/><ellipse cx="5.011" cy="4.997" rx="5.011" ry="4.997" transform="translate(28.825 28.013)" fill="#e4778e"/></g></svg>