<svg xmlns="http://www.w3.org/2000/svg" xmlns:xlink="http://www.w3.org/1999/xlink" width="69.971" height="46.869" viewBox="0 0 69.971 46.869"><defs><linearGradient id="a" x1="0.036" y1="0.058" x2="0.977" y2="0.848" gradientUnits="objectBoundingBox"><stop offset="0" stop-color="#f1eeee"/><stop offset="1" stop-color="#dadada"/></linearGradient><linearGradient id="b" x1="0.5" y1="-0.333" x2="0.5" y2="1.333" gradientUnits="objectBoundingBox"><stop offset="0" stop-color="#816a6a"/><stop offset="1" stop-color="#a9a0a0"/></linearGradient></defs><g transform="translate(-183.418 -2991)"><path d="M7,0H55a6,6,0,0,1,6,6V36a6,6,0,0,1-6,6H0a0,0,0,0,1,0,0V7A7,7,0,0,1,7,0Z" transform="translate(188 2991)" fill="#7adfd0"/><g transform="translate(187.611 2994)"><path d="M85.277,76H36.112A5.969,5.969,0,0,0,30,81.8v27.067a5.969,5.969,0,0,0,6.112,5.8H85.277a5.969,5.969,0,0,0,6.112-5.8V81.8A5.969,5.969,0,0,0,85.277,76Z" transform="translate(-30 -76)" fill="url(#a)"/></g><g transform="translate(108.6 2864.913)"><rect width="11" height="22" rx="5.5" transform="translate(119.4 136.087)" fill="url(#b)"/><rect width="12" height="14" rx="6" transform="translate(104.4 144.087)" fill="url(#b)"/><rect width="11" height="11" rx="5.5" transform="translate(90.4 147.087)" fill="url(#b)"/></g><g transform="translate(183.418 2680.8)"><path d="M61.126,346H1.845A1.844,1.844,0,0,0,0,347.845a9.235,9.235,0,0,0,9.224,9.224H53.747a9.235,9.235,0,0,0,9.224-9.224A1.844,1.844,0,0,0,61.126,346Z" fill="#f79caf"/></g><g transform="translate(190.418 2680.8)"><path d="M61.126,346H1.845A1.844,1.844,0,0,0,0,347.845a9.235,9.235,0,0,0,9.224,9.224H53.747a9.235,9.235,0,0,0,9.224-9.224A1.844,1.844,0,0,0,61.126,346Z" fill="#ec849a"/></g></g></svg>