<svg xmlns="http://www.w3.org/2000/svg" xmlns:xlink="http://www.w3.org/1999/xlink" width="91.281" height="100" viewBox="0 0 91.281 100"><defs><clipPath id="a"><path d="M35.888-8.77c6.169,16.788,4.045,38.532-12.44,53.5C7.065,59.7-23.579,67.89-39.255,56.26-54.829,44.73-55.335,13.379-46.233-7.455c9.2-20.935,28.014-31.453,44.7-30.745S29.719-25.659,35.888-8.77Z" transform="translate(1092.213 1287.233)" fill="#ebebeb"/></clipPath></defs><g transform="translate(-1040 -1249)" clip-path="url(#a)"><g transform="translate(1035.641 1249)"><path d="M79.542,64.975C81.131,22.9,76.585,0,50,0S18.869,22.9,20.458,64.975Z" fill="#2d4456"/><path d="M57.952,55.046h-15.9A27.7,27.7,0,0,0,20.46,64.975q.142,3.748.343,7.653H79.2q.2-3.907.343-7.653A27.7,27.7,0,0,0,57.952,55.046Z" fill="#253847"/><path d="M79.71,98.117H20.29l-1.883-1.883V83.176A24.369,24.369,0,0,1,32.818,60.931l33.894-.2a24.371,24.371,0,0,1,14.88,22.449V96.234Z" fill="#ffcf4d"/><path d="M19.454,100H29.32l1.569-1.883L32.458,100H67.542l1.569-1.883L70.68,100h9.867a1.046,1.046,0,0,0,1.046-1.046v-2.72H18.407v2.72A1.046,1.046,0,0,0,19.454,100Z" fill="#ffb629"/><path d="M50,69.046,42.289,58.818a24.258,24.258,0,0,0-9.47,2.114C42.289,87.306,50,69.046,50,69.046Z" fill="#ff9517"/><path d="M50,69.046l7.711-10.229a24.258,24.258,0,0,1,9.47,2.114C57.711,87.306,50,69.046,50,69.046Z" fill="#ff9517"/><path d="M42.289,58.812s0,10.235,7.711,10.235,7.711-10.235,7.711-10.235Z" fill="#ffc4ad"/><path d="M39.779,20.859c-1.142,2.506-3.9,7.335-8.931,9.585a1.047,1.047,0,0,0-.623.955v7.638a19.774,19.774,0,0,0,39.548,0V29.91a1.046,1.046,0,0,0-1.088-1.045c-4.191.163-19.439.137-27.176-8.275A1.048,1.048,0,0,0,39.779,20.859Z" fill="#ffe0cc"/><path d="M50,56.929A19.774,19.774,0,0,1,30.226,37.154V40.92a19.774,19.774,0,0,0,39.548,0V37.154A19.774,19.774,0,0,1,50,56.929Z" fill="#ffceb3"/><path d="M32.458,86.188V96.234l-1.569,1.883L29.32,96.234V86.188a1.569,1.569,0,1,1,3.138,0Z" fill="#ff9517"/><path d="M70.68,86.188V96.234l-1.569,1.883-1.569-1.883V86.188a1.569,1.569,0,1,1,3.138,0Z" fill="#ff9517"/><path d="M29.32,96.234h3.138V100H29.32Z" fill="#ef7f0f"/><path d="M67.542,96.234H70.68V100H67.542Z" fill="#ef7f0f"/><path d="M40.4,33.241a1.572,1.572,0,0,0-1.572,1.572v4.442a1.572,1.572,0,0,0,3.144,0V34.813A1.572,1.572,0,0,0,40.4,33.241Z" fill="#2d4456"/><path d="M59.6,40.827a1.572,1.572,0,0,0,1.572-1.572V34.813a1.572,1.572,0,1,0-3.144,0v4.442A1.572,1.572,0,0,0,59.6,40.827Z" fill="#2d4456"/><path d="M55.789,47.725h0a1.571,1.571,0,1,0-2.887-1.23h0c-.066.14-.711,1.364-2.9,1.364s-2.83-1.225-2.9-1.364h0a1.57,1.57,0,1,0-2.887,1.23h0C44.712,48.942,46.5,51,50,51s5.288-2.06,5.789-3.277Z" fill="#ff5876"/></g></g></svg>