<svg xmlns="http://www.w3.org/2000/svg" width="41.922" height="60.187" viewBox="0 0 41.922 60.187"><g transform="translate(-78)"><path d="M119.922,163.025H78l8.32-28.584H111.6Z" transform="translate(0 -118.637)" fill="#d0fdfa"/><path d="M189.937,250.512v24.756a5.98,5.98,0,0,1-10.2,4.237,5.979,5.979,0,0,1-10.2-4.237V250.512Z" transform="translate(-80.775 -221.064)" fill="#f79caf"/><path d="M277.273,163.025H256.312V134.441h12.641Z" transform="translate(-157.351 -118.637)" fill="#b7dff7"/><path d="M266.513,250.512v24.756a5.98,5.98,0,0,1-10.2,4.237V250.512Z" transform="translate(-157.351 -221.064)" fill="#e07b90"/><path d="M141.2,107.91l-6.283,8.029H114.367L108,107.914a4.407,4.407,0,0,1,.621-6.1l4.429-3.7a8.346,8.346,0,0,1,5.334-1.933h12.432a8.341,8.341,0,0,1,5.333,1.933l4.429,3.7A4.407,4.407,0,0,1,141.2,107.91Z" transform="translate(-25.638 -84.881)" fill="#acebe2"/><path d="M272.914,107.91l-6.283,8.029h-10.32V96.188h6.216a8.341,8.341,0,0,1,5.333,1.933l4.429,3.7A4.407,4.407,0,0,1,272.914,107.91Z" transform="translate(-157.351 -84.881)" fill="#90d9ce"/><path d="M208.465,7.353A7.353,7.353,0,1,1,201.111,0,7.361,7.361,0,0,1,208.465,7.353Z" transform="translate(-102.15)" fill="#ffdaa8"/><path d="M256.312,14.706V0a7.353,7.353,0,1,1,0,14.706Z" transform="translate(-157.351)" fill="#ffc372"/><path d="M169.535,161.129h3.2v12.117h-3.2Z" transform="translate(-80.775 -142.188)" fill="#7dc2b7"/><path d="M315.859,160.855h3.2V173h-3.2Z" transform="translate(-209.898 -141.946)" fill="#7dc2b7"/></g></svg>