<svg xmlns="http://www.w3.org/2000/svg" width="61.871" height="45.322" viewBox="0 0 61.871 45.322"><g transform="translate(-10.905)"><g transform="translate(10.905)"><path d="M354.03,176.427h-6.511a2.241,2.241,0,0,0-2.241,2.241v14.345a2.241,2.241,0,0,0,2.241,2.241H370.19v-2.667a16.161,16.161,0,0,0-16.161-16.161Z" transform="translate(-308.32 -150.064)" fill="#f79caf"/><path d="M275.779,42.357a12.284,12.284,0,0,0-7.734,2.748,2.237,2.237,0,0,0-.826,1.738H258.1V66.871h17.678a12.257,12.257,0,0,0,0-24.514Z" transform="translate(-234.17 -36.028)" fill="#ffddce"/><g transform="translate(41.606 6.329)"><path d="M376.389,42.357h0V66.871h0a12.257,12.257,0,1,0,0-24.514Z" transform="translate(-376.387 -42.357)" fill="#ffddce"/></g><path d="M125.4,149.583h-7.657A19.812,19.812,0,0,0,97.955,169.4v3.152h47.233v-3.179a19.812,19.812,0,0,0-19.788-19.79Z" transform="translate(-97.955 -127.231)" fill="#acebe2"/><path d="M279.616,169.252v3.3H256v-22.97h3.828A19.709,19.709,0,0,1,279.616,169.252Z" transform="translate(-232.383 -127.231)" fill="#90d9ce"/><circle cx="14.176" cy="14.176" r="14.176" transform="translate(9.458 0.006)" fill="#e5ae8c"/><path d="M256,0V28.345A14.172,14.172,0,1,0,256,0Z" transform="translate(-232.383)" fill="#dd9366"/><path d="M161.156,14.172a14.189,14.189,0,0,0,14.172,14.172V0A14.189,14.189,0,0,0,161.156,14.172Z" transform="translate(-151.712)" fill="#e5ae8c"/></g></g></svg>