<svg xmlns="http://www.w3.org/2000/svg" xmlns:xlink="http://www.w3.org/1999/xlink" width="88.647" height="100" viewBox="0 0 88.647 100"><defs><clipPath id="a"><path d="M45.737-21.244C51.015-1.666,40.362,19.64,23.663,31.445c-16.6,11.8-39.253,14.2-52.209,4.511s-16.123-31.479-9.981-52.3S-17.029-57.042,1.206-58C19.44-58.865,40.554-40.918,45.737-21.244Z" transform="translate(1480.549 1307.031)" fill="#f06"/></clipPath></defs><g transform="translate(-1439 -1249)" clip-path="url(#a)"><g transform="translate(1433.323 1249)"><path d="M79.71,98.118H20.29l-1.883-1.883V83.176A24.3,24.3,0,0,1,26.4,65.132H73.6a24.3,24.3,0,0,1,7.992,18.043V96.235Z" fill="#86dcff"/><path d="M19.454,100h9.964l1.465-1.758L32.348,100h35.3l1.465-1.758L70.582,100h9.964a1.046,1.046,0,0,0,1.046-1.046v-2.72H18.407v2.72A1.046,1.046,0,0,0,19.454,100Z" fill="#56caed"/><path d="M50,79.406,65.75,62.075l-.1-1.769a24.3,24.3,0,0,0-8.417-1.495H42.771a24.306,24.306,0,0,0-8.344,1.468l.082,2.082Z" fill="#e4eef9"/><path d="M34.354,60.307A24.3,24.3,0,0,0,31.9,61.369l.648,2.785L50,83.172,67.633,63.958l.47-2.589a24.25,24.25,0,0,0-2.457-1.062L50.774,76.671a1.046,1.046,0,0,1-1.548,0Z" fill="#d5e0f2"/><path d="M50,79.406l4.431-4.876.388-2.31-1.154-6.326L50,64.011l-3.665,1.883L45.181,72.22l.388,2.31Z" fill="#ff5876"/><path d="M53.665,65.894h-7.33l-1.6-7.082H55.264Z" fill="#e6485d"/><path d="M55.392,75.356,54.82,72.22l-4.045,4.451a1.046,1.046,0,0,1-1.548,0L45.181,72.22l-.572,3.136L50,85.055Z" fill="#e6485d"/><path d="M31.9,61.369a24.4,24.4,0,0,0-3.534,2.158l.24,2.147L47.678,86.663a3.138,3.138,0,0,0,4.645,0L71.6,65.448l.034-1.92A24.41,24.41,0,0,0,68.1,61.369L50.723,80.494a.976.976,0,0,1-1.445,0Z" fill="#ffcf4d"/><path d="M52.322,84.78a3.138,3.138,0,0,1-4.645,0L28.364,63.528a24.385,24.385,0,0,0-1.964,1.6L47.678,88.546a3.138,3.138,0,0,0,4.645,0L73.6,65.132a24.427,24.427,0,0,0-1.964-1.6Z" fill="#ffb629"/><path d="M32.109,38.063,30.226,33a6.666,6.666,0,0,0-.682-.035,6.6,6.6,0,0,0-6.3,4.633c-.193.619-.009,6.672,6.3,6.672l.732-1.924Z" fill="#ffc4ad"/><path d="M29.544,42.382a6.6,6.6,0,0,1-6.319-4.711,6.6,6.6,0,0,0,7.664,8.339l1.5-1.745L30.278,42.34A6.6,6.6,0,0,1,29.544,42.382Z" fill="#ffb69f"/><path d="M67.892,38.063,69.774,33a6.666,6.666,0,0,1,.682-.035,6.6,6.6,0,0,1,6.3,4.633c.193.619.009,6.672-6.3,6.672l-.732-1.924Z" fill="#ffc4ad"/><path d="M70.456,42.382a6.6,6.6,0,0,0,6.319-4.711,6.6,6.6,0,0,1-7.663,8.339l-1.5-1.745,2.114-1.925A6.6,6.6,0,0,0,70.456,42.382Z" fill="#ffb69f"/><path d="M30.226,12.693V39.038a19.774,19.774,0,0,0,39.549,0V12.693Z" fill="#ffe0cc"/><path d="M50,56.929A19.774,19.774,0,0,1,30.226,37.155V40.92a19.774,19.774,0,0,0,39.549,0V37.155A19.774,19.774,0,0,1,50,56.929Z" fill="#ffceb3"/><path d="M68.863,26.689a89.366,89.366,0,0,1-6.643-6.367c-5.646,4.538-9.889,4.937-9.889,4.937l-4.15-4.049a32.125,32.125,0,0,1-17.426,6.31,3.717,3.717,0,0,1-1-.163c-5.176-1.584-7.132-4.723-7.132-4.723s-.6-1.375.35-1.558a9.635,9.635,0,0,0,6.755-4.387c-5.563.168-7.361-3.956-7.928-6.224a1.048,1.048,0,0,1,1.1-1.3C33.3,9.981,35.82,3.578,45.59.692,55.771-2.315,62.98,5.451,62.98,5.451s10.319-1,11.2,9.523C75.03,25.028,68.863,26.689,68.863,26.689Z" fill="#2d4456"/><path d="M69.045,24.867c-2.494-1.764-4.783-5.029-5.972-6.9a1.048,1.048,0,0,0-1.717-.064c-4.275,5.521-13.175,3.3-13.175,3.3a10.427,10.427,0,0,1,2.181,5.82,1.046,1.046,0,0,0,1.277,1.029c2.512-.573,7.771-2.377,10.581-7.737,0,0,3.194,5.742,6.822,8.31a1.045,1.045,0,0,0,1.366-.138c1.359-1.45,4.373-5.588,3.79-13.293a15.572,15.572,0,0,1-3.788,9.524,1.044,1.044,0,0,1-1.366.142Z" fill="#253847"/><path d="M48.4,19.968a1.041,1.041,0,0,0-1.75-.906,23.258,23.258,0,0,1-15.9,6.574,3.717,3.717,0,0,1-1-.163,18.638,18.638,0,0,1-6.782-4.4c-.364.07-.746.127-1.145.169a1.045,1.045,0,0,0-.671,1.74c1.809,1.994,5.127,5.194,8.6,6.256a3.718,3.718,0,0,0,1,.163,23.333,23.333,0,0,0,17.426-8.193c.1-.47.169-.881.221-1.24Z" fill="#253847"/><path d="M32.348,85.543V96.235l-1.465,1.883-1.465-1.883V85.543a1.465,1.465,0,1,1,2.93,0Z" fill="#4ea1f4"/><path d="M29.418,96.235h2.93V100h-2.93Z" fill="#3292e0"/><path d="M70.582,85.543V96.235l-1.465,1.883-1.465-1.883V85.543a1.465,1.465,0,1,1,2.93,0Z" fill="#4ea1f4"/><path d="M67.653,96.235h2.93V100h-2.93Z" fill="#3292e0"/><path d="M50,51c5.578,0,7.264-3.92,7.338-4.1h0a1.569,1.569,0,1,0-2.9-1.21c-.079.168-1.1,2.171-4.442,2.171s-4.363-2-4.442-2.171a1.569,1.569,0,1,0-2.9,1.21h0C42.736,47.08,44.422,51,50,51Z" fill="#ff5876"/><path d="M40.418,33.274a1.569,1.569,0,0,0-1.569,1.569v4.433a1.569,1.569,0,1,0,3.138,0V34.843A1.569,1.569,0,0,0,40.418,33.274Z" fill="#2d4456"/><path d="M59.582,40.845a1.569,1.569,0,0,0,1.569-1.569V34.843a1.569,1.569,0,0,0-3.138,0v4.433A1.569,1.569,0,0,0,59.582,40.845Z" fill="#2d4456"/></g></g></svg>