<svg xmlns="http://www.w3.org/2000/svg" xmlns:xlink="http://www.w3.org/1999/xlink" width="128.3" height="124.609" viewBox="0 0 128.3 124.609"><defs><clipPath id="a"><path d="M32.02-29.859C35.431-15.9,21.151.367,4.333,12.425-12.485,24.4-31.842,32.338-46.2,24.087-60.64,15.837-70.081-8.6-63.813-26.527S-35.571-55.959-13.993-55.8C7.506-55.721,28.609-43.9,32.02-29.859Z" transform="matrix(0.819, -0.574, 0.574, 0.819, 715.35, 1306.758)" fill="#ebebeb"/></clipPath></defs><g transform="translate(-629.456 -1242.39)" clip-path="url(#a)"><g transform="translate(631.302 1242.39)"><path d="M66.347,2.169A24.435,24.435,0,1,0,80.722,24.437,24.334,24.334,0,0,0,66.347,2.169Z" fill="#8288cb"/><path d="M51.973,24.437A24.436,24.436,0,0,1,66.347,2.169a24.437,24.437,0,1,0,0,44.536A24.436,24.436,0,0,1,51.973,24.437Z" fill="#676fb2"/><path d="M66.548,123.054a44.4,44.4,0,0,1,9.531-2.674,25.282,25.282,0,0,0-.489-4.219,23.771,23.771,0,0,0-3.857-9,19.628,19.628,0,0,0-11.515-7.979,17.552,17.552,0,0,0-3.932-.445,19.014,19.014,0,0,0-15.447,8.423,24.184,24.184,0,0,0-4.33,12.852c3.095.987,6.09,2.266,9.21,3.178a3.542,3.542,0,0,1,1.953,1.42H65.192a2.6,2.6,0,0,1,1.356-1.554Z" fill="#ffb357"/><path d="M56.606,122.11a64.816,64.816,0,0,1-2.239-16.921V98.852a19.413,19.413,0,0,0-13.5,8.306,22.947,22.947,0,0,0-1.767,2.93,24.482,24.482,0,0,0-2.587,9.923c3.093.987,6.087,2.265,9.206,3.177a3.542,3.542,0,0,1,1.953,1.42h9.612Z" fill="#fc8a3d"/><path d="M38.91,107.158A22.49,22.49,0,0,0,34,121.21v3.4H48.271a67.026,67.026,0,0,1-2.875-19.42v-3.582a22.5,22.5,0,0,0-6.486,5.551Z" fill="#efedff"/><path d="M73.66,107.158a22.49,22.49,0,0,1,4.906,14.053v3.4H64.3a67.026,67.026,0,0,0,2.875-19.42v-3.582a22.5,22.5,0,0,1,6.486,5.551Z" fill="#efedff"/><path d="M45.4,105.189v-3.582a22.5,22.5,0,0,0-6.486,5.551c-.269.338-.532.687-.781,1.041a3.227,3.227,0,0,0,.208,3.945l3.376,3.966-.921,2.4a3.252,3.252,0,0,0,2,4.246l5.484,1.85a67.035,67.035,0,0,1-2.875-19.42Z" fill="#d4d4ff"/><path d="M67.174,105.189v-3.582a22.5,22.5,0,0,1,6.486,5.551q.4.507.779,1.038a3.231,3.231,0,0,1-.205,3.948l-3.376,3.966.921,2.4a3.252,3.252,0,0,1-2,4.246L64.3,124.609a67.026,67.026,0,0,0,2.875-19.42Z" fill="#d4d4ff"/><path d="M56.285,92.982,45.4,101.607c1.243,7.664,6.066,11.5,10.889,11.5s9.645-3.831,10.889-11.5Z" fill="#ffbf9d"/><path d="M97.972,61.935H14.6a10.062,10.062,0,0,0,0,20.124H97.972a10.062,10.062,0,1,0,0-20.124Z" fill="#ffbf9d"/><path d="M56.285,24.947C53.919,24.947,14.6,40.7,14.6,61.36a41.687,41.687,0,1,0,83.373,0c0-20.657-39.321-36.413-41.686-36.413Z" fill="#ffd4bd"/><path d="M28.427,61.418c0-.6.014-1.189.039-1.779a117.923,117.923,0,0,1-13.776,4.472,41.707,41.707,0,0,0,48.538,38.357,41.622,41.622,0,0,1-34.8-41.05Z" fill="#ffbf9d"/><path d="M56.285,81.689a6.368,6.368,0,0,1-4.8-2.187,1.88,1.88,0,0,1,2.835-2.471,2.606,2.606,0,0,0,3.934,0A1.88,1.88,0,1,1,61.088,79.5a6.37,6.37,0,0,1-4.8,2.187Z" fill="#313d40"/><ellipse cx="8.337" cy="6.612" rx="8.337" ry="6.612" transform="translate(24.948 75.447)" fill="#ffb5c0"/><ellipse cx="8.337" cy="6.612" rx="8.337" ry="6.612" transform="translate(70.947 75.447)" fill="#ffb5c0"/><path d="M97.164,53.167h0a41.617,41.617,0,0,0-9.28-18.989l0,0a41.664,41.664,0,0,0-63.195,0l0,0A41.614,41.614,0,0,0,15.4,53.167h0A41.867,41.867,0,0,0,14.6,61.36q0,1.876.164,3.711a17.163,17.163,0,0,0,15.915-11.59,21.48,21.48,0,0,1,5.175-8.331l.081-.08a26.83,26.83,0,0,1,10.739-6.638,9.434,9.434,0,0,1,8.268,1.21,2.36,2.36,0,0,0,2.688,0,9.434,9.434,0,0,1,8.268-1.21A26.828,26.828,0,0,1,76.636,45.07l.081.08a21.479,21.479,0,0,1,5.175,8.331,17.146,17.146,0,0,0,15.915,11.59q.162-1.834.164-3.711a41.846,41.846,0,0,0-.808-8.194Z" fill="#8288cb"/><path d="M63.232,20.251a41.728,41.728,0,0,0-38.545,13.93l0,0A41.614,41.614,0,0,0,15.4,53.167h0A41.867,41.867,0,0,0,14.6,61.36q0,1.876.164,3.711A17.12,17.12,0,0,0,28.6,57.618,41.758,41.758,0,0,1,63.232,20.251Z" fill="#676fb2"/><path d="M82.188,124.033a4.317,4.317,0,0,1-.895-6.786l31.418-31.418a4.312,4.312,0,0,1,6.1,6.1L87.392,123.346A4.314,4.314,0,0,1,82.188,124.033Z" fill="#ce857a"/><circle cx="5.75" cy="5.75" r="5.75" transform="translate(81.758 103.475)" fill="#ffbf9d"/><circle cx="8.625" cy="8.625" r="8.625" transform="translate(86.96 104.364)" fill="#ffd4bd"/><path d="M100.159,62.31a4.313,4.313,0,0,0-5.891-1.579L92.59,61.7a6.368,6.368,0,0,0-1.4-2.33c-5.181-5.283-24.644-5.335-29.738.024a5.559,5.559,0,0,0-.955,1.394,7.556,7.556,0,0,0-8.425,0l-2.766,3.755,3.012,4.739A4.481,4.481,0,0,1,56.285,66.7c1.786,0,3.892,1.407,4.108,3.146v-.021c.86,3.154,2.5,6.506,4.705,8.1,4.748,3.421,18.768,3.586,23.518-.035a12.419,12.419,0,0,0,3.657-6.041L98.581,68.2a4.313,4.313,0,0,0,1.578-5.891Z" fill="#ff8e9e"/><path d="M52.072,60.788a5.568,5.568,0,0,0-.955-1.394c-5.094-5.359-24.557-5.308-29.738-.024a6.37,6.37,0,0,0-1.4,2.33L18.3,60.731A4.312,4.312,0,1,0,13.989,68.2L20.3,71.842a12.417,12.417,0,0,0,3.657,6.041c4.75,3.62,18.77,3.456,23.518.035,2.209-1.591,3.845-4.943,4.705-8.1l.017-.064q.064-.235.124-.475c.7-2.783,1-5.956-.246-8.494Z" fill="#ea5b70"/><path d="M46.275,66.594c-.422,2.457-1.579,5.351-2.585,6.076-2.565,1.848-13.49,1.9-15.814.071-.963-.758-1.872-3.853-2.041-6.325a3.447,3.447,0,0,1,2.445-3.553,33.125,33.125,0,0,1,15.481-.156,3.437,3.437,0,0,1,2.513,3.888Z" fill="#b9f0ff"/><path d="M86.734,66.415c-.168,2.473-1.077,5.568-2.041,6.325-2.323,1.828-13.249,1.777-15.814-.071-1.006-.725-2.163-3.618-2.585-6.076a3.437,3.437,0,0,1,2.513-3.888,33.122,33.122,0,0,1,15.481.156A3.447,3.447,0,0,1,86.734,66.415Z" fill="#b9f0ff"/><path d="M74.029,68.393h-.009a1.881,1.881,0,0,0-1.88,1.872l-.006,1.376a1.88,1.88,0,0,0,1.872,1.889h.009a1.881,1.881,0,0,0,1.88-1.872l.006-1.376a1.881,1.881,0,0,0-1.872-1.889Z" fill="#313d40"/><path d="M38.628,68.235H38.62a1.881,1.881,0,0,0-1.88,1.872l-.006,1.376a1.88,1.88,0,0,0,1.872,1.889h.009a1.881,1.881,0,0,0,1.88-1.872l.006-1.376A1.881,1.881,0,0,0,38.628,68.235Z" fill="#313d40"/></g></g></svg>